<svg width="64" height="64" viewBox="0 0 64 64" xmlns="http://www.w3.org/2000/svg"><title>icon-nor-l</title><path d="M9 53.999V10c0-1.105.898-2 2.006-2h41.988C54.102 8 55 8.896 55 10.001V54a2.003 2.003 0 0 1-2.006 2H11.006A2.004 2.004 0 0 1 9 53.999zM26.75 26c.088-3.196 2.055-4.444 6-4.5 2.85.056 4.56 2.02 4.5 4.5.06 1.141-.468 2.04-2.115 3.222-.325.233-6.26 4.046-6.135 9.528h4.5c0-3.058 3.75-5.415 4.5-6 2.562-1.998 3.75-3.97 3.75-6.75 0-4.79-3.346-9-9-9-6.705 0-10.5 3.467-10.5 9h4.5zM29 38.75v1.257c0 .538.447.993.999.993H32.5a.997.997 0 0 0 .999-.993V38.75H29zm0 5.499v2.502a1 1 0 0 0 .999.999H32.5a1 1 0 0 0 .999-.999V44.25a1 1 0 0 0-.999-.999H30a1 1 0 0 0-.999.999zM22.25 26v1.257c0 .538.447.993.999.993h2.502a.997.997 0 0 0 .999-.993V26h-4.5z" fill="#C3C7CF" fill-rule="evenodd"/></svg>