<svg width="64" height="64" viewBox="0 0 64 64" xmlns="http://www.w3.org/2000/svg"><title>icon-ps-l</title><path d="M4.295 12.293A.998.998 0 0 1 5 12h16.393c7.264 0 13.153 5.887 13.153 13.152 0 7.263-5.889 13.151-13.153 13.151h-9.756v13.418c0 .556-.454 1.006-.998 1.006h-5.64c-.551 0-.998-.457-.998-1.006V13.007c0-.28.115-.532.298-.715zm7.341 7.343v11.03h9.76a5.516 5.516 0 0 0 0-11.03h-9.76zm47.76 12.728H52.14c0-1.193-.235-1.73-.696-2.219-.725-.766-1.822-.963-3.536-.963-1.681 0-4.232 0-4.232 2.545 0 1.08 1.397 1.884 4.232 2.546 4.055.94 6.569 1.762 7.789 2.354C58.566 38.057 60 40.255 60 43.182c0 3.554-1.43 5.998-4.232 7.636-2.044 1.185-4.42 1.91-7.254 1.91-3.528 0-6.288-.586-8.464-1.91-2.736-1.673-4.232-4.294-4.232-7.636h7.255c0 1.13.303 2.218 1.177 2.933.873.714 2.187.885 4.264.885 1.55 0 4.231 0 4.231-2.545 0-1.15-1.43-2.52-4.231-3.182-4.154-.941-6.167-1.352-7.255-1.91-2.835-1.393-4.836-4.002-4.836-7 0-2.439.934-4.054 2.418-5.727 1.88-2.09 4.738-3.181 8.464-3.181 3.296 0 5.342.192 7.254 1.272 2.67 1.534 4.836 4.117 4.836 7.637z" fill="#15B2F3" fill-rule="evenodd"/></svg>