<svg width="64" height="64" viewBox="0 0 64 64" xmlns="http://www.w3.org/2000/svg"><title>icon-ai-l</title><path d="M18.452 42L14.38 52.064c-.21.52-.825.936-1.376.936H6.997c-.544 0-.827-.42-.618-.936L22.62 11.936c.21-.52.825-.936 1.376-.936h4.006c.55 0 1.165.416 1.376.936L45.62 52.064c.21.517-.074.936-.618.936h-6.006c-.55 0-1.165-.416-1.376-.936L33.548 42H18.452zm3.238-8h8.62L26 23.353 21.69 34zM50 30c0-.552.453-1 .997-1h6.006c.55 0 .997.447.997 1v22c0 .552-.453 1-.997 1h-6.006A.999.999 0 0 1 50 52V30zm4-3a4 4 0 1 1 0-8 4 4 0 0 1 0 8z" fill="#FF8444" fill-rule="evenodd"/></svg>