<svg width="64" height="64" viewBox="0 0 64 64" xmlns="http://www.w3.org/2000/svg"><title>icon-note-l</title><g fill="none" fill-rule="evenodd"><path d="M50.25 9.5H4.242a.998.998 0 0 0-.992.998v7.004c0 .552.444.998.992.998h36.982l5.019-9h4.007zm-14.046 18H4.242a.998.998 0 0 0-.992.998v7.004c0 .552.444.998.992.998h26.943l5.02-9zm-8.954 18H4.242a.998.998 0 0 0-.992.998v7.004c0 .552.444.998.992.998h36.512H27.25v-9z" fill="#C3C7CF"/><path d="M52.551 10.188a1.304 1.304 0 0 1 1.813-.505l6.349 3.793c.634.379.85 1.22.484 1.876L41.895 49.938l-8.645-5.164 19.301-34.586zM33.288 53.641l-.038-8.867 8.645 5.164-7.44 4.4c-.648.382-1.163.066-1.167-.697z" fill="#1CB972"/></g></svg>