<svg width="64" height="64" viewBox="0 0 64 64" xmlns="http://www.w3.org/2000/svg"><title>icon-bt-l</title><path d="M56.505 46H53.99a.998.998 0 0 1-.99-1.003V37h6.008c.537 0 .992-.446.992-.997v-6.006a.999.999 0 0 0-.992-.997H53v-9h2-8.998c-.546 0-1.002.45-1.002 1.006V29h-4.008c-.537 0-.992.446-.992.997v6.006c0 .544.444.997.992.997H45v10.005A6 6 0 0 0 51 53h6.991A1 1 0 0 0 59 51.997v-4.994A1 1 0 0 0 57.99 46h-1.485zM33.907 31.427A12.484 12.484 0 0 1 39 41.5C39 48.404 33.405 54 26.509 54H5.999C5.447 54 5 53.545 5 53.005v-40.01A.99.99 0 0 1 5.996 12h17.507C30.405 12 36 17.595 36 24.5c0 2.562-.77 4.944-2.093 6.927zM13 37v9h13.504a4.501 4.501 0 0 0 0-9H13zm0-17v9h10.5c2.477 0 4.5-2.015 4.5-4.5 0-2.48-2.015-4.5-4.5-4.5H13z" fill="#FAA51E" fill-rule="evenodd"/></svg>