<svg width="64" height="64" viewBox="0 0 64 64" xmlns="http://www.w3.org/2000/svg"><title>icon-ipa-l</title><path d="M33.994 9.525C37.624 5.023 42.686 5 42.686 5s.747 4.236-2.86 8.315c-3.84 4.356-8.231 3.641-8.231 3.641s-.83-3.426 2.42-7.43h-.02zm7.631 8.975c7.762 0 11.25 5.473 11.25 5.473s-6.746 2.796-6.746 9.852C46.13 41.777 54 44.77 54 44.77s-5.359 14.164-12.375 14.164c-3.229 0-7.468-2.123-10.125-2.123S25.86 59 23.625 59C17.209 59 9 45.533 9 34.919 9 24.436 14.945 18.5 21.375 18.5c4.174 0 7.952 3.013 10.125 3.013S37.12 18.5 41.625 18.5z" fill="#C3C7CF" fill-rule="evenodd"/></svg>