<svg width="64" height="64" viewBox="0 0 64 64" xmlns="http://www.w3.org/2000/svg"><title>icon-apk-l</title><path d="M24.356 8.708C26.603 7.556 29.214 6.897 32 6.897c2.879 0 5.571.704 7.868 1.928l2.002-3.468a1.332 1.332 0 0 1 1.82-.483c.641.37.857 1.181.49 1.817l-2.034 3.522a1.338 1.338 0 0 1-.04.065c3.15 2.464 5.135 6.06 5.135 10.067H16.76c0-4.09 2.07-7.755 5.336-10.221L20.113 6.69a1.328 1.328 0 0 1 .49-1.817 1.332 1.332 0 0 1 1.819.483l1.934 3.35zm4.954 40.326v5.823a4.04 4.04 0 0 1-4.034 4.04 4.033 4.033 0 0 1-4.035-4.04v-5.823h-3.485a1 1 0 0 1-.997-1.003V23.034H47.24v24.997c0 .554-.454 1.003-.997 1.003H42.76v5.823a4.04 4.04 0 0 1-4.035 4.04 4.033 4.033 0 0 1-4.034-4.04v-5.823h-5.38zM6 27.074a4.04 4.04 0 0 1 4.034-4.04 4.033 4.033 0 0 1 4.035 4.04V38.72a4.04 4.04 0 0 1-4.035 4.039A4.033 4.033 0 0 1 6 38.719V27.075zm43.931-.015a4.033 4.033 0 0 1 4.035-4.025A4.036 4.036 0 0 1 58 27.06v12.57a4.033 4.033 0 0 1-4.034 4.025 4.036 4.036 0 0 1-4.035-4.025V27.06zM37.828 15.862a1.345 1.345 0 1 0 0-2.69 1.345 1.345 0 0 0 0 2.69zm-11.656 0a1.345 1.345 0 1 0 0-2.69 1.345 1.345 0 0 0 0 2.69z" fill="#1CB972" fill-rule="evenodd"/></svg>