<svg width="64" height="64" viewBox="0 0 64 64" xmlns="http://www.w3.org/2000/svg"><title>icon-keynote-l</title><path d="M30 52h-7.998A1 1 0 0 0 21 53.01v1.98A1 1 0 0 0 22.002 56h19.996A1 1 0 0 0 43 54.99v-1.98A1 1 0 0 0 41.998 52H34V38h22.001c.551 0 .999-.452.999-1.01v-1.98a.999.999 0 0 0-.999-1.01H8c-.552 0-1 .452-1 1.01v1.98c0 .567.447 1.01.999 1.01H30v14zM10.742 9.98C10.884 8.888 11.897 8 12.997 8h38.006c1.103 0 2.113.888 2.255 1.98L56 31H8l2.742-21.02z" fill="#5193EC" fill-rule="evenodd"/></svg>