<svg width="64" height="64" viewBox="0 0 64 64" xmlns="http://www.w3.org/2000/svg"><title>icon-numbers-l</title><path d="M5 53.01c0-.558.442-1.01 1-1.01h51a1 1 0 0 1 1 1.01v1.98c0 .558-.442 1.01-1 1.01H6a1 1 0 0 1-1-1.01v-1.98zM7 33c0-.552.456-1 .995-1h8.01c.55 0 .995.455.995 1v15c0 .552-.456 1-.995 1h-8.01C7.445 49 7 48.545 7 48V33zm13-10.007a1 1 0 0 1 .995-.993h8.01c.55 0 .995.446.995.993v25.014a1 1 0 0 1-.995.993h-8.01a.995.995 0 0 1-.995-.993V22.993zm13-14A1 1 0 0 1 33.995 8h8.01c.55 0 .995.446.995.993v39.014a1 1 0 0 1-.995.993h-8.01a.995.995 0 0 1-.995-.993V8.993zm13 8.013c0-.556.456-1.006.995-1.006h8.01c.55 0 .995.442.995 1.006v30.988c0 .556-.456 1.006-.995 1.006h-8.01A.995.995 0 0 1 46 47.994V17.006z" fill="#1CB972" fill-rule="evenodd"/></svg>