<svg width="64" height="64" viewBox="0 0 64 64" xmlns="http://www.w3.org/2000/svg"><title>icon-zip-l</title><path d="M55 53.999V10a2.003 2.003 0 0 0-2.006-2H11.006A2.004 2.004 0 0 0 9 10.001V54c0 1.105.898 2 2.006 2h41.988A2.004 2.004 0 0 0 55 53.999zM38 14.99v4.018c0 .54-.444.991-.99.991H32v-6h5.01c.539 0 .99.444.99.99zm0 12v4.018c0 .54-.444.991-.99.991H32v-6h5.01c.539 0 .99.444.99.99zm0 12v4.018c0 .54-.444.991-.99.991H32v-6h5.01c.539 0 .99.444.99.99zM26 8h6v6h-5.01a.996.996 0 0 1-.99-.99V8zm0 12.99c0-.546.451-.99.99-.99H32v6h-5.01a.996.996 0 0 1-.99-.99v-4.02zm0 12c0-.546.451-.99.99-.99H32v6h-5.01a.996.996 0 0 1-.99-.99v-4.02zm0 12c0-.546.451-.99.99-.99H32v6h-5.01a.996.996 0 0 1-.99-.99v-4.02zm12 6V56h-6v-6h5.01c.539 0 .99.444.99.99z" fill="#4FB2FC" fill-rule="evenodd"/></svg>