<svg width="64" height="64" viewBox="0 0 64 64" xmlns="http://www.w3.org/2000/svg"><title>icon-txt-l</title><path d="M8 9.998A.998.998 0 0 1 9.003 9h45.994A1 1 0 0 1 56 9.998v7.004a.998.998 0 0 1-1.003.998H9.003A1 1 0 0 1 8 17.002V9.998zm0 18A.998.998 0 0 1 9.003 27h45.994a1 1 0 0 1 1.003.998v7.004a.998.998 0 0 1-1.003.998H9.003A1 1 0 0 1 8 35.002v-7.004zm0 18A.998.998 0 0 1 9.003 45h45.994a1 1 0 0 1 1.003.998v7.004a.998.998 0 0 1-1.003.998H9.003A1 1 0 0 1 8 53.002v-7.004z" fill="#C3C7CF" fill-rule="evenodd"/></svg>