<svg width="64" height="64" viewBox="0 0 64 64" xmlns="http://www.w3.org/2000/svg"><title>icon-pages-l</title><path d="M52.847 15.158L40.984 27.023l-6.976-6.976L47.606 6.445a4.933 4.933 0 1 1 7.342 6.57l1.414 1.415c.976.976.98 2.565.005 3.54L44.634 29.702l.44.44a1.5 1.5 0 1 1-2.122 2.12l-.794-.793a2.5 2.5 0 0 1 .001-3.534l11.733-11.733-1.045-1.044zM38.863 29.145L26.581 41.43c-1.928 1.928-5.46 4.483-7.899 5.711l-7.865 3.96c-.983.496-1.38.101-.884-.883l3.96-7.865c1.227-2.435 3.78-5.969 5.71-7.9l12.283-12.285 6.977 6.977zM5 55.645c0-.558.45-1.01 1.007-1.01h51.986c.556 0 1.007.443 1.007 1.01v1.98c0 .558-.45 1.01-1.007 1.01H6.007A1.003 1.003 0 0 1 5 57.625v-1.98z" fill="#FF8444" fill-rule="evenodd"/></svg>