<svg width="64" height="64" viewBox="0 0 64 64" xmlns="http://www.w3.org/2000/svg"><title>icon-sketch-l</title><path d="M25.272 43.206L18.478 29h-6.664l13.458 14.206zM23.478 29L32 46.818 40.522 29H23.478zM38.68 43.305L52.327 29h-6.805L38.68 43.305zM35.385 13h-7.77l-4.23 11h16.23l-4.23-11zm5 0l4.23 11h9.273l-7.153-11h-6.35zm-17.77 0H17.42l-7.148 11h8.113l4.23-11zM33 56a7.286 7.286 0 0 1-2 0L3 27c-.039-.092-.104-.744 0-1L14 9c.361-.653 1-1 1-1h33c1.004 0 1.64.355 2 1l11 17c.106.263.038.905 0 1L33 56z" fill="#FAA51E"/></svg>