<svg width="64" height="64" viewBox="0 0 64 64" xmlns="http://www.w3.org/2000/svg"><title>icon-pdf-l</title><path d="M24.1 10.108c0-7.264 8.613-7.912 10.772-1.3.676 2.071.581 4.696-.052 7.978a56.817 56.817 0 0 1-.915 3.902c.009-.031-1.14 4.085-1.248 4.64-.154.798-.532 2.165-1.043 3.837C27.898 21.9 24.1 13.03 24.1 10.108zm28.58 25.28c6.644 1.856 5.483 12.24-1.281 12.24-2.432 0-5.175-1.397-8.352-3.799-1.987-1.502-3.716-3.055-5.618-4.904l-.095-.092-.084-.103c-.074-.091-.15-.189-.23-.293 8.08-2.46 13.551-3.637 15.66-3.048zm-21.495 4.897a302.58 302.58 0 0 1 5.836-1.848c-1.348-1.769-3.365-5.278-5.407-9.272-1.098 3.593-2.81 8.594-4.238 12.39a344.79 344.79 0 0 1 3.809-1.27zm-3.847 1.37l-.045.121.087-.287a5.028 5.028 0 0 1-.042.166c-.74 2.792-4.742 9.896-6.954 12.605-3.939 5.445-10.37 7.718-12.787 3.112-1.898-3.619.332-7.379 4.547-9.902 1.58-.999 7.924-3.431 15.214-5.909.005.027-.007.06-.02.094zM30.613 10.2c-.666-2.04-2.033-1.937-2.033-.09 0 .952.727 3.128 1.838 5.843.503-2.608.575-4.59.195-5.753zM14.675 51.16l-.102.078-.11.066c-2.452 1.462-3.393 3.044-2.899 3.986.033.062.256.112 1.05-.172 1.332-.475 2.885-1.733 4.173-3.53l.095-.123c.392-.474.875-1.157 1.397-1.958-1.865.733-3.164 1.317-3.604 1.653zm36.724-8.012c1.459 0 1.79-2.966.077-3.444-.609-.17-2.585.188-5.33.871 2.147 1.596 3.998 2.573 5.253 2.573zm-33.12 6.36c1.928-2.96 4.387-7.522 4.736-9.028l.034-.147.053-.14c2.011-5.322 4.73-13.508 5.157-15.715.148-.765 1.388-5.21 1.318-4.945.355-1.332.63-2.49.841-3.58 2.788 6.807 7.994 17.01 10.233 19.857 1.917 1.856 3.798 3.504 5.495 4.765-7.654 1.906-21.282 6.345-27.867 8.932z" fill="#F25D5D"/></svg>